<svg width="275" height="57" viewBox="0 0 275 57" fill="none" xmlns="http://www.w3.org/2000/svg">
<path d="M29.8514 57L27.8613 46.6934H14.7448L12.7547 57H0L13.026 0H29.4895L42.8774 57H29.8514ZM16.5539 37.3726H25.9616L21.2578 13.2642L16.5539 37.3726Z" fill="white"/>
<path d="M60.1911 47.5896H76.745V57H47.3459V0H60.1911V47.5896Z" fill="white"/>
<path d="M114.927 18.4623H101.991V11.0236C101.991 9.52987 101.177 8.78302 99.5491 8.78302H95.8403C94.212 8.78302 93.3979 9.52987 93.3979 11.0236V45.9764C93.3979 46.8129 93.5788 47.4104 93.9406 47.7689C94.3025 48.0676 94.9357 48.217 95.8403 48.217H99.5491C100.454 48.217 101.087 48.0676 101.449 47.7689C101.811 47.4104 101.991 46.8129 101.991 45.9764V34.8632H97.4685V26.3491H114.927V47.1415C114.927 53.7138 111.128 57 103.529 57H91.8601C84.2616 57 80.4623 53.7138 80.4623 47.1415V9.85849C80.4623 3.28616 84.2616 0 91.8601 0H103.529C111.128 0 114.927 3.28616 114.927 9.85849V18.4623Z" fill="white"/>
<path d="M133.295 0H145.417C153.015 0 156.814 3.28616 156.814 9.85849V47.0519C156.814 53.684 153.015 57 145.417 57H133.295C125.636 57 121.807 53.684 121.807 47.0519V9.85849C121.807 3.28616 125.636 0 133.295 0ZM143.879 45.3491V11.6509C143.879 10.1572 143.095 9.41038 141.527 9.41038H137.185C135.557 9.41038 134.742 10.1572 134.742 11.6509V45.3491C134.742 46.8428 135.557 47.5896 137.185 47.5896H141.527C143.095 47.5896 143.879 46.8428 143.879 45.3491Z" fill="white"/>
<path d="M187.186 21.6887V11.0236C187.186 9.52987 186.372 8.78302 184.743 8.78302H177.326V23.9292H184.743C186.372 23.9292 187.186 23.1824 187.186 21.6887ZM187.186 45.9764V34.8632C187.186 34.0865 187.005 33.5487 186.643 33.25C186.281 32.8915 185.648 32.7123 184.743 32.7123H177.326V48.217H184.743C186.372 48.217 187.186 47.4701 187.186 45.9764ZM164.571 0H188.452C196.111 0 199.941 3.28616 199.941 9.85849V19.8962C199.941 24.3176 198.584 27.0959 195.87 28.2311C198.584 29.2469 199.941 31.816 199.941 35.9387V47.0519C199.941 53.684 196.111 57 188.452 57H164.571V0Z" fill="white"/>
<path d="M220.528 47.5896H238.981V57H207.592V0H238.258V9.41038H220.528V23.3019H235.634V32.7123H220.528V47.5896Z" fill="white"/>
<path d="M275 0V9.41038H264.416V57H251.481V9.41038H240.988V0H275Z" fill="white"/>
</svg>
