<svg width="41" height="41" viewBox="0 0 41 41" fill="none" xmlns="http://www.w3.org/2000/svg">
<path d="M20.3657 40.7137C15.0036 40.7159 9.85705 38.6026 6.04438 34.8327C2.2312 31.0627 0.0598297 25.9409 0.00121783 20.579C-0.0573965 15.2174 2.0019 10.0492 5.73183 6.19684C9.46144 2.3446 14.5609 0.119583 19.9214 0.00468434C25.2822 -0.110272 30.4724 1.89454 34.363 5.58355C38.2545 9.27257 40.533 14.3477 40.7043 19.7071C40.8147 23.3495 39.9469 26.955 38.191 30.1482C36.4348 33.3415 33.8555 36.0059 30.7205 37.864C27.5854 39.7221 24.0096 40.7059 20.3652 40.7133L20.3657 40.7137ZM31.7258 15.0373C29.3582 13.8673 27.1297 12.7718 24.9107 11.6669C23.9405 11.1796 23.7407 11.2026 23.1047 12.0708C21.7585 13.9509 18.685 18.0687 18.6341 18.2963C18.5829 18.5236 19.0985 24.0436 19.2934 26.6526C19.2639 27.1538 19.638 27.5877 20.1383 27.6321C22.5913 28.0702 25.0748 28.3186 27.5661 28.3746C28.1218 28.4242 28.6756 28.2581 29.1121 27.9106C30.8158 26.5178 32.5244 25.1717 34.2191 23.7326C34.4341 23.4506 34.5558 23.1076 34.5672 22.7528C34.5792 22.5112 34.5312 22.2706 34.4279 22.052C33.6572 19.9474 32.8835 17.8474 32.1067 15.7523C32.0464 15.5898 31.8327 15.2044 31.7725 15.0467C32.1769 15.2171 32.5565 15.4418 32.9004 15.7151C34.0749 16.6762 35.268 17.6231 36.3683 18.6677C37.3524 19.5961 37.427 19.6706 37.9049 18.3426C38.3366 17.1587 38.5921 15.7663 38.9636 14.4431C39.1899 15.1853 39.312 15.9557 39.3256 16.7319C39.3719 18.5052 39.3256 20.2878 39.3629 22.0659C39.4399 22.88 39.5717 23.6879 39.7573 24.4846C40.6303 20.8176 40.3959 16.9741 39.0844 13.4399C39.0147 13.7696 39.0332 14.1967 38.9824 14.438C38.5458 13.2032 38.128 11.7871 37.6223 10.6404C36.3405 7.72536 34.154 5.4366 30.881 4.71247C30.4956 4.62893 30.4166 4.75425 30.1336 5.00974C29.233 5.78498 28.3369 6.56509 27.4175 7.33092C27.06 7.62819 27.0879 7.83706 27.3757 8.18967C29.0888 10.2414 30.3378 12.6001 31.7258 15.0373ZM1.94403 18.9646C0.978386 20.7055 0.907228 24.4194 1.00472 24.8142C1.62907 27.4579 2.79939 29.9423 4.44002 32.1074C4.56567 32.3496 4.75091 32.5556 4.97857 32.7062C6.09775 33.1935 7.21223 33.8037 8.37841 34.1638C8.48982 34.1175 9.92438 31.7033 10.5977 30.6402C10.826 30.3248 10.7965 29.8915 10.5281 29.6098C8.88463 27.6834 7.79363 25.4318 6.6563 23.1987C6.53033 22.9953 6.41699 22.7845 6.31725 22.5672C6.54944 22.6786 6.83732 22.869 6.98564 22.9387C8.8982 23.8302 10.8066 24.7307 12.7285 25.6128C12.9384 25.7624 13.2036 25.81 13.4526 25.7437C13.7013 25.6769 13.9073 25.5031 14.0145 25.2689C15.4491 23.0636 18.5734 18.4352 18.6107 18.3054C18.6479 18.1756 18.2671 13.1986 18.1463 10.8266C18.1 9.96332 18.1045 9.89825 17.2641 9.79139C15.2401 9.55921 13.2019 9.41543 11.1779 9.20656C10.8214 9.12366 10.4519 9.11427 10.0915 9.17871C9.34862 9.39697 7.09699 11.4536 4.87803 13.9603C4.64616 14.1802 4.4768 14.4574 4.38709 14.7641C4.29707 15.0707 4.29058 15.3959 4.36734 15.7057C4.64584 17.0101 4.97096 18.3009 5.32361 19.5867C5.58819 20.5384 5.98294 21.518 6.32657 22.5624C4.58106 21.7224 3.28116 20.3947 1.94403 18.9646ZM33.3648 34.3499C33.597 33.7651 34.0008 32.9989 34.1725 32.4001C34.5067 31.2256 34.7945 30.0372 35.073 28.8533C35.1333 28.5932 35.2541 28.171 34.7061 28.3008C33.1096 28.6528 31.4681 28.7516 29.8411 28.5932C28.9042 28.5294 27.9703 28.7513 27.1623 29.2292C25.129 30.3202 22.9842 31.179 20.8531 32.1074C20.2216 32.3859 20.0917 32.5718 20.2355 33.2447C20.4398 34.2242 20.9596 37.7015 21.2245 37.9846C21.4891 38.2676 26.3081 39.1358 27.9561 38.2724C29.6854 37.3541 31.2972 36.2304 32.7566 34.9254C32.8357 34.8558 33.2813 34.415 33.3648 34.3499C33.3648 34.3499 32.2227 35.993 31.6702 36.6986C34.6181 35.1482 39.0984 29.0897 39.2143 26.5733C38.5783 27.2466 37.8681 27.7711 37.4549 28.6345C36.3742 30.7267 34.9967 32.6521 33.3648 34.3499ZM18.1282 1.13883C16.7299 0.91442 15.4407 1.49847 14.0923 1.93045C11.6421 2.79989 9.36906 4.10522 7.38364 5.7836C5.9908 6.9257 5.20325 7.9401 4.8088 9.6159C4.70679 10.0476 4.8088 10.159 5.27319 10.0152C6.95842 9.45335 9.91571 9.22602 10.1107 9.1609C10.4727 9.05404 15.5469 6.35236 17.5155 5.40068C17.8611 5.29608 18.0968 4.97679 18.0958 4.61605C18.068 3.48788 18.1282 2.31782 18.1282 1.13883ZM21.8811 39.7602C21.6444 39.2959 21.4106 38.1991 21.2247 37.9853C20.9601 37.6974 17.2415 35.8173 15.9416 34.8426C15.2806 34.3387 14.438 34.136 13.6203 34.2853C11.8736 34.3546 10.1238 34.3063 8.38355 34.1415C8.29547 34.3688 7.87935 35.7026 8.687 36.2924C12.0669 38.724 16.1294 40.0242 20.2933 40.006C20.828 39.9636 21.3588 39.8813 21.8811 39.7602ZM32.0454 4.44002C28.171 1.65776 23.4186 0.375724 18.6699 0.832914C18.475 0.832914 18.1324 0.855794 18.1324 1.13882C19.7017 2.10443 21.1777 2.76829 22.6172 3.70124C22.9845 3.97746 23.4346 4.12156 23.8938 4.1099C26.125 3.99495 28.3618 4.18406 30.5421 4.67174C30.6904 4.69958 30.7688 4.97854 32.0454 4.44002Z" fill="#0E0E0E"/>
</svg>
