<svg width="146" height="141" viewBox="0 0 146 141" fill="none" xmlns="http://www.w3.org/2000/svg">
<path d="M20.9704 30.6245L143.452 30.6249L125 109.562L2.5179 109.561L20.9704 30.6245Z" fill="#FEDA00"/>
<path d="M35.0881 62.7119H38.1279V72.8539C38.1279 73.7914 37.9172 74.6058 37.4958 75.2971C37.0791 75.9884 36.4991 76.5211 35.7557 76.8951C35.0123 77.2692 34.1482 77.4562 33.1634 77.4562C32.2874 77.4562 31.492 77.3023 30.777 76.9945C30.0668 76.682 29.5033 76.2086 29.0867 75.5741C28.67 74.9349 28.464 74.1323 28.4688 73.1664H31.5299C31.5393 73.5499 31.6175 73.879 31.7642 74.1536C31.9158 74.4235 32.1217 74.6319 32.3821 74.7786C32.6473 74.9207 32.9598 74.9917 33.3196 74.9917C33.6984 74.9917 34.018 74.9112 34.2784 74.7502C34.5436 74.5845 34.7448 74.343 34.8821 74.0258C35.0194 73.7086 35.0881 73.3179 35.0881 72.8539V62.7119ZM45.5426 77.4704C44.4394 77.4704 43.4854 77.236 42.6804 76.7673C41.8802 76.2938 41.2623 75.6356 40.8267 74.7928C40.3911 73.9453 40.1733 72.9628 40.1733 71.8454C40.1733 70.7185 40.3911 69.7336 40.8267 68.8908C41.2623 68.0433 41.8802 67.3852 42.6804 66.9164C43.4854 66.4429 44.4394 66.2062 45.5426 66.2062C46.6459 66.2062 47.5976 66.4429 48.3978 66.9164C49.2027 67.3852 49.8229 68.0433 50.2586 68.8908C50.6942 69.7336 50.912 70.7185 50.912 71.8454C50.912 72.9628 50.6942 73.9453 50.2586 74.7928C49.8229 75.6356 49.2027 76.2938 48.3978 76.7673C47.5976 77.236 46.6459 77.4704 45.5426 77.4704ZM45.5568 75.1266C46.0587 75.1266 46.4778 74.9846 46.814 74.7005C47.1501 74.4117 47.4034 74.0187 47.5739 73.5215C47.7491 73.0244 47.8367 72.4586 47.8367 71.8241C47.8367 71.1896 47.7491 70.6238 47.5739 70.1266C47.4034 69.6295 47.1501 69.2365 46.814 68.9477C46.4778 68.6588 46.0587 68.5144 45.5568 68.5144C45.0502 68.5144 44.6241 68.6588 44.2784 68.9477C43.9375 69.2365 43.6795 69.6295 43.5043 70.1266C43.3338 70.6238 43.2486 71.1896 43.2486 71.8241C43.2486 72.4586 43.3338 73.0244 43.5043 73.5215C43.6795 74.0187 43.9375 74.4117 44.2784 74.7005C44.6241 74.9846 45.0502 75.1266 45.5568 75.1266ZM52.8793 77.2573V66.3482H55.9049V77.2573H52.8793ZM54.3992 64.942C53.9494 64.942 53.5635 64.7928 53.2415 64.4945C52.9243 64.1915 52.7657 63.8293 52.7657 63.4079C52.7657 62.9912 52.9243 62.6337 53.2415 62.3354C53.5635 62.0324 53.9494 61.8809 54.3992 61.8809C54.849 61.8809 55.2325 62.0324 55.5497 62.3354C55.8717 62.6337 56.0327 62.9912 56.0327 63.4079C56.0327 63.8293 55.8717 64.1915 55.5497 64.4945C55.2325 64.7928 54.849 64.942 54.3992 64.942ZM61.3541 70.9505V77.2573H58.3285V66.3482H61.212V68.2729H61.3399C61.5814 67.6385 61.9862 67.1366 62.5544 66.7673C63.1225 66.3932 63.8115 66.2062 64.6211 66.2062C65.3787 66.2062 66.0392 66.3719 66.6027 66.7033C67.1661 67.0348 67.6041 67.5083 67.9166 68.1238C68.2291 68.7346 68.3853 69.4638 68.3853 70.3113V77.2573H65.3598V70.8511C65.3645 70.1835 65.194 69.6626 64.8484 69.2886C64.5028 68.9098 64.0269 68.7204 63.4208 68.7204C63.0136 68.7204 62.6538 68.808 62.3413 68.9832C62.0335 69.1584 61.7921 69.414 61.6169 69.7502C61.4464 70.0817 61.3588 70.4818 61.3541 70.9505ZM87.6218 62.7119V77.2573H84.9656L78.6375 68.1025H78.5309V77.2573H75.4556V62.7119H78.1545L84.4329 71.8596H84.5608V62.7119H87.6218ZM95.0348 77.4704C93.9316 77.4704 92.9775 77.236 92.1726 76.7673C91.3724 76.2938 90.7545 75.6356 90.3189 74.7928C89.8833 73.9453 89.6655 72.9628 89.6655 71.8454C89.6655 70.7185 89.8833 69.7336 90.3189 68.8908C90.7545 68.0433 91.3724 67.3852 92.1726 66.9164C92.9775 66.4429 93.9316 66.2062 95.0348 66.2062C96.1381 66.2062 97.0898 66.4429 97.8899 66.9164C98.6949 67.3852 99.3151 68.0433 99.7507 68.8908C100.186 69.7336 100.404 70.7185 100.404 71.8454C100.404 72.9628 100.186 73.9453 99.7507 74.7928C99.3151 75.6356 98.6949 76.2938 97.8899 76.7673C97.0898 77.236 96.1381 77.4704 95.0348 77.4704ZM95.049 75.1266C95.5509 75.1266 95.97 74.9846 96.3061 74.7005C96.6423 74.4117 96.8956 74.0187 97.0661 73.5215C97.2413 73.0244 97.3289 72.4586 97.3289 71.8241C97.3289 71.1896 97.2413 70.6238 97.0661 70.1266C96.8956 69.6295 96.6423 69.2365 96.3061 68.9477C95.97 68.6588 95.5509 68.5144 95.049 68.5144C94.5424 68.5144 94.1163 68.6588 93.7706 68.9477C93.4297 69.2365 93.1717 69.6295 92.9965 70.1266C92.826 70.6238 92.7408 71.1896 92.7408 71.8241C92.7408 72.4586 92.826 73.0244 92.9965 73.5215C93.1717 74.0187 93.4297 74.4117 93.7706 74.7005C94.1163 74.9846 94.5424 75.1266 95.049 75.1266ZM104.25 77.2573L101.281 66.3482H104.342L106.033 73.6778H106.132L107.893 66.3482H110.898L112.688 73.6352H112.78L114.442 66.3482H117.496L114.534 77.2573H111.331L109.456 70.3965H109.321L107.446 77.2573H104.25Z" fill="black"/>
</svg>
