<svg width="38" height="42" viewBox="0 0 38 42" fill="none" xmlns="http://www.w3.org/2000/svg">
<path fill-rule="evenodd" clip-rule="evenodd" d="M15.1388 5.13892L11.7328 4.23939C10.0253 3.78822 8.26783 4.78847 7.80985 6.47058L6.72905 10.4427H3.20331C1.43508 10.4427 0 11.8565 0 13.5985V38.8443C0 40.5862 1.43508 42 3.20331 42H20.2879C22.0561 42 23.4912 40.5862 23.4912 38.8443V38.2321L24.5044 34.5083L37.5602 13.1657C37.5634 13.1604 37.5677 13.154 37.5709 13.1488C38.455 11.6403 37.9287 9.7092 36.3986 8.83813L21.6029 0.422982C20.0718 -0.448017 18.1115 0.0693693 17.2273 1.57789L15.1398 5.13971L15.1388 5.13892ZM12.2945 19.0836C11.957 18.8829 11.534 18.8829 11.1969 19.0836L5.85821 22.2393C5.53574 22.4288 5.3391 22.7715 5.3391 23.141V29.4524C5.3391 29.8215 5.53573 30.1646 5.85821 30.3541L11.1969 33.5098C11.5344 33.7106 11.9574 33.7106 12.2945 33.5098L17.6332 30.3541C17.9557 30.1646 18.1523 29.8219 18.1523 29.4524V23.141C18.1523 22.7719 17.9557 22.4288 17.6332 22.2393L12.2945 19.0836ZM11.7457 21.2117L16.0169 23.7362V28.8569L11.7457 31.3815L7.4745 28.8569V23.7362L11.7457 21.2117ZM15.3623 7.37516L11.1808 6.27173C10.6117 6.12134 10.0253 6.45487 9.87267 7.01558L8.9406 10.4429H20.2876C22.0559 10.4429 23.4909 11.8566 23.4909 13.5986V30.1031L28.4379 11.9171C28.5905 11.3553 28.252 10.7787 27.6828 10.6283L15.3958 7.38525C15.3851 7.38208 15.3733 7.37891 15.3615 7.37574L15.3623 7.37516ZM26.5007 27.1688C30.3704 20.8425 35.7271 12.0853 35.7317 12.079C36.0123 11.5792 35.8354 10.946 35.3313 10.6589L20.5357 2.24376C20.0251 1.95355 19.3719 2.12578 19.077 2.62872L17.2754 5.70131L28.2362 8.59502C29.9448 9.04514 30.959 10.7776 30.5022 12.4597L26.5007 27.1688Z" fill="#0E0E0E"/>
</svg>
