<svg width="33" height="36" viewBox="0 0 33 36" fill="none" xmlns="http://www.w3.org/2000/svg">
<path d="M0.000274409 9.69835V13.9235C0.000274409 14.9994 0.872341 15.8714 1.94827 15.8714H14.9253L14.925 7.75H1.948C0.872067 7.75 0 8.62207 0 9.69799L0.000274409 9.69835Z" fill="#0E0E0E"/>
<path d="M30.2711 7.75H17.2941V15.8714H30.2711C31.347 15.8714 32.2191 14.9994 32.2191 13.9235V9.69835C32.2188 8.62242 31.3468 7.75035 30.2708 7.75035L30.2711 7.75Z" fill="#0E0E0E"/>
<path d="M1.81055 34.1441C1.81055 34.8411 2.37556 35.4061 3.07256 35.4061H14.9249L14.9246 17.3101H1.81062L1.81055 34.1441Z" fill="#0E0E0E"/>
<path d="M17.2941 35.4057H29.1464C29.8434 35.4057 30.4084 34.8407 30.4084 34.1437L30.4082 17.3093H17.2941L17.2941 35.4057Z" fill="#0E0E0E"/>
<path d="M7.80554 6.37885C8.21386 6.60661 9.04424 6.90901 11.5317 6.90901C12.9027 6.90901 14.1158 6.81544 14.1666 6.81132C14.4413 6.79019 14.6872 6.63241 14.8214 6.39148C14.9556 6.15082 14.9602 5.85885 14.834 5.61382C14.4583 4.88443 12.5125 1.20712 11.1207 0.431369C10.6144 0.149004 10.0421 0 9.46524 0C8.23041 0 7.08999 0.669554 6.4893 1.74744C5.5755 3.3876 6.16576 5.46513 7.80561 6.37893L7.80554 6.37885ZM7.92711 2.54868C8.23747 1.99163 8.82692 1.64585 9.4652 1.64585C9.76212 1.64585 10.0574 1.72296 10.3189 1.86894C10.8295 2.15378 11.8649 3.67237 12.7575 5.2387C12.3882 5.25242 11.9664 5.2623 11.5312 5.2623C9.35295 5.2623 8.74214 5.01616 8.60627 4.94042C7.76027 4.46899 7.45483 3.39579 7.92711 2.54867V2.54868Z" fill="#0E0E0E"/>
<path d="M18.0527 6.81168C18.1037 6.81552 19.3166 6.90937 20.6876 6.90937C23.1751 6.90937 24.0054 6.60697 24.4138 6.37921C26.0534 5.46542 26.6439 3.38788 25.7301 1.74772C25.1294 0.66954 23.989 0 22.7542 0C22.1773 0 21.605 0.149005 21.0987 0.431095C19.7069 1.20685 17.761 4.88423 17.3854 5.61355C17.2592 5.8586 17.2638 6.15057 17.398 6.3912C17.5322 6.63241 17.7781 6.78992 18.0528 6.8116L18.0527 6.81168ZM21.9002 1.86906C22.1617 1.72307 22.4573 1.64596 22.7539 1.64596C23.3924 1.64596 23.9816 1.99172 24.292 2.5488C24.764 3.39593 24.4591 4.46855 23.6123 4.94112C23.477 5.01658 22.8656 5.26299 20.6873 5.26299C20.2521 5.26299 19.8309 5.25284 19.461 5.2394C20.3542 3.6725 21.3895 2.15393 21.9002 1.86908L21.9002 1.86906Z" fill="#0E0E0E"/>
</svg>
