<svg width="16" height="16" viewBox="0 0 16 16" fill="none" xmlns="http://www.w3.org/2000/svg">
<path d="M7.52439 0C3.37576 0 0 3.46015 0 7.7125C0 11.9648 3.37576 15.425 7.52439 15.425C11.673 15.425 15.0488 11.9648 15.0488 7.7125C15.0488 3.46015 11.673 0 7.52439 0ZM7.52439 14.7657C3.73008 14.7657 0.64321 11.6017 0.64321 7.7125C0.64321 3.82334 3.73008 0.659291 7.52439 0.659291C11.3187 0.659291 14.4056 3.82334 14.4056 7.7125C14.4056 11.6017 11.3187 14.7657 7.52439 14.7657Z" fill="#0E0E0E"/>
<path d="M7.44211 1.11108C4.00628 1.17091 1.20511 4.03709 1.14114 7.55857C1.11769 8.85637 1.46299 10.0708 2.07665 11.1006C2.13599 11.1999 2.19801 11.2976 2.26248 11.3934C2.33647 11.505 2.41461 11.6137 2.49569 11.7201C2.52523 11.7591 2.55551 11.7976 2.5858 11.8357C3.76282 13.3122 5.55228 14.2563 7.55297 14.2563C9.55366 14.2563 11.221 13.3758 12.3976 11.9851C12.6278 11.7128 12.8364 11.4212 13.0212 11.1133C13.6198 10.1136 13.9658 8.93922 13.9658 7.68297C13.9658 4.02082 11.0284 1.04826 7.44211 1.11083V1.11108ZM6.54811 4.52343L5.23238 7.5886C4.95083 7.64517 4.67025 7.73878 4.47318 7.89422L6.72759 2.88822L8.00449 5.76767C8.00449 5.76767 8.67432 7.26046 7.67214 7.50951H6.27095L7.15445 5.51887L6.54786 4.52393L6.54811 4.52343ZM2.42731 10.3031C2.04148 9.51366 1.82415 8.62434 1.82415 7.68322C1.82415 4.97046 3.62826 2.68247 6.07095 2.01091L2.42731 10.3031ZM2.97846 11.214L3.48981 10.0786C3.67857 9.78749 3.88809 9.50665 4.11641 9.26236C4.55401 8.79405 5.14325 8.50595 5.77206 8.43487C6.03017 8.40558 6.34958 8.3798 6.66947 8.3798C6.66947 8.3798 7.87604 8.55651 8.54978 7.97782C9.46087 7.30827 8.76906 5.49434 8.76906 5.49434C8.60081 4.93242 8.29948 4.13321 7.76176 3.03064L7.22526 1.82119C7.33368 1.81468 7.44308 1.81117 7.55297 1.81117C7.71707 1.81117 7.87897 1.81868 8.0399 1.8327C8.83402 2.85392 9.58175 6.14062 9.58175 6.14062C10.0245 8.0454 8.8538 8.75951 8.18715 9.00655C7.96639 9.0884 7.73172 9.12119 7.49705 9.11468C6.81697 9.09566 6.1889 9.14597 5.78671 9.19052C5.32957 9.24108 4.90248 9.45584 4.59235 9.80376C4.11836 10.3351 3.67539 11.1243 3.38602 11.709C3.2417 11.5519 3.10569 11.3864 2.97846 11.2142V11.214ZM12.6542 10.3539L11.1595 7.26021C11.1595 7.26021 11.1595 8.3798 10.9168 8.6286L12.0835 11.2725C11.946 11.4542 11.799 11.6272 11.643 11.7909L10.4318 9.25035C10.4318 9.25035 10.0675 9.87259 9.82472 9.99699L10.8696 12.2582L10.8701 12.2587L10.9168 12.3603H10.9248L10.95 12.4071C9.99908 13.1275 8.82376 13.5553 7.55322 13.5553C6.28267 13.5553 5.05534 13.1095 4.0937 12.3603H4.12105C4.12105 12.3603 4.60676 11.1163 5.09173 10.4941C5.48684 9.98848 6.68412 9.97647 7.11733 9.98948C7.25237 9.99349 7.38765 9.99273 7.52245 9.98222C8.38861 9.91414 9.00862 9.68336 9.45232 9.35397C10.9238 8.36704 10.537 6.11458 10.537 6.11458C10.4022 4.87234 9.45208 2.83165 9.05184 2.01567C11.4865 2.69223 13.282 4.97672 13.282 7.68322C13.282 8.64437 13.0557 9.55221 12.6545 10.3539H12.6542Z" fill="#0E0E0E"/>
</svg>
