<svg width="80" height="82" viewBox="0 0 80 82" fill="none" xmlns="http://www.w3.org/2000/svg">
<path d="M40 0C17.9457 0 0 18.3943 0 41C0 63.6057 17.9457 82 40 82C62.0543 82 80 63.6057 80 41C80 18.3943 62.0543 0 40 0ZM40 78.4952C19.8293 78.4952 3.41934 61.675 3.41934 41C3.41934 20.325 19.8293 3.50482 40 3.50482C60.1707 3.50482 76.5807 20.325 76.5807 41C76.5807 61.675 60.1707 78.4952 40 78.4952Z" fill="#FEDA00"/>
<path d="M39.5626 5.90657C21.2976 6.22459 6.40648 21.4614 6.06636 40.1817C5.94174 47.0809 7.77733 53.537 11.0396 59.0111C11.355 59.5394 11.6848 60.0583 12.0275 60.5679C12.4208 61.1614 12.8362 61.7388 13.2672 62.3044C13.4243 62.5119 13.5853 62.7168 13.7462 62.9191C20.0033 70.7683 29.5162 75.7874 40.152 75.7874C50.7877 75.7874 59.6515 71.1063 65.906 63.7135C67.1302 62.2658 68.2388 60.7156 69.2215 59.079C72.4033 53.7645 74.2428 47.5213 74.2428 40.843C74.2428 21.3749 58.6273 5.57259 39.5626 5.90524V5.90657ZM34.8101 24.0467L27.8156 40.3414C26.3188 40.6421 24.8273 41.1397 23.7797 41.966L35.7642 15.3539L42.5523 30.6612C42.5523 30.6612 46.1131 38.5969 40.7855 39.9209H33.3367L38.0334 29.3386L34.8088 24.0494L34.8101 24.0467ZM12.9037 54.7718C10.8527 50.5751 9.6973 45.8474 9.6973 40.8443C9.6973 26.4232 19.2881 14.2601 32.2735 10.6901L12.9037 54.7718ZM15.8337 59.6139L18.552 53.5782C19.5555 52.0307 20.6693 50.5378 21.8831 49.2391C24.2094 46.7496 27.3418 45.218 30.6845 44.8401C32.0567 44.6845 33.7547 44.5474 35.4553 44.5474C35.4553 44.5474 41.8694 45.4868 45.451 42.4104C50.2944 38.8511 46.6168 29.2082 46.6168 29.2082C45.7223 26.2209 44.1204 21.9723 41.2619 16.111L38.4099 9.68151C38.9862 9.64691 39.5678 9.62828 40.152 9.62828C41.0243 9.62828 41.885 9.6682 42.7405 9.74271C46.9621 15.1716 50.937 32.6438 50.937 32.6438C53.2906 42.7697 47.0672 46.5659 43.5233 47.8792C42.3497 48.3144 41.1022 48.4887 39.8547 48.4541C36.2393 48.3529 32.9005 48.6204 30.7624 48.8572C28.3323 49.126 26.0618 50.2677 24.4132 52.1172C21.8934 54.9421 19.5386 59.1375 18.0003 62.2458C17.2331 61.4102 16.51 60.5307 15.8337 59.6152V59.6139ZM67.2704 55.0419L59.3244 38.5956C59.3244 38.5956 59.3244 44.5474 58.034 45.87L64.2366 59.9252C63.5057 60.8912 62.7243 61.8107 61.8947 62.6809L55.4559 49.1753C55.4559 49.1753 53.5191 52.4831 52.2287 53.1445L57.7835 65.1652L57.7861 65.1678L58.034 65.708H58.0769L58.2106 65.9569C53.1556 69.7864 46.9076 72.0604 40.1533 72.0604C33.399 72.0604 26.8745 69.6906 21.7623 65.708H21.9077C21.9077 65.708 24.4898 59.0949 27.0679 55.787C29.1683 53.0992 35.5331 53.0353 37.8361 53.1045C38.5539 53.1258 39.2731 53.1218 39.9897 53.0659C44.5943 52.704 47.8903 51.4772 50.249 49.7261C58.0717 44.4795 56.0154 32.5054 56.0154 32.5054C55.2988 25.9016 50.2477 15.0532 48.12 10.7154C61.0626 14.312 70.6079 26.4565 70.6079 40.8443C70.6079 45.9539 69.4046 50.78 67.2717 55.0419H67.2704Z" fill="#FEDA00"/>
</svg>
