<svg width="54" height="34" viewBox="0 0 54 34" fill="none" xmlns="http://www.w3.org/2000/svg">
<path d="M14.8356 18.0391L9.83338 15.7652V7.5798H17.6995V4.79443L8.41233 4.79483C7.67326 4.79483 6.99127 5.42011 6.99127 6.21588V15.7652L1.98946 18.0391C1.70517 18.1529 1.70517 18.5505 1.98946 18.6643L8.29895 21.5632C8.41274 21.6199 8.46945 21.6199 8.58324 21.5632L14.8927 18.6643C15.1199 18.5505 15.1199 18.1525 14.8356 18.0391Z" fill="#0E0E0E"/>
<path d="M7.16196 23.3821L0.454788 20.3695C0.227592 20.2557 0 20.4262 0 20.6538V29.8621C0 29.9759 0.0566986 30.0893 0.170496 30.1464L6.87767 33.2157C7.10487 33.3295 7.33246 33.159 7.33246 32.9314V23.7235C7.33246 23.553 7.27576 23.4392 7.16196 23.3821V23.3821Z" fill="#0E0E0E"/>
<path d="M53.5454 20.3697L46.8382 23.4389C46.7244 23.4956 46.6677 23.6094 46.6677 23.7232V32.9316C46.6677 33.1588 46.8949 33.3296 47.1225 33.2159L53.8297 30.1466C53.9435 30.0899 54.0002 29.9761 54.0002 29.8623V20.654C54.0002 20.4268 53.773 20.2563 53.5454 20.3697Z" fill="#0E0E0E"/>
<path d="M52.0104 18.039L47.0082 15.7656L47.0086 6.15873C47.0086 5.36296 46.3833 4.73767 45.5875 4.73767H36.4651V7.52304H44.1665V15.7651L39.1643 18.0389C38.88 18.1527 38.88 18.5504 39.1643 18.6642L45.4737 21.5631C45.5875 21.6198 45.6442 21.6198 45.758 21.5631L52.0105 18.6642C52.2381 18.5504 52.2381 18.1523 52.0105 18.0389L52.0104 18.039Z" fill="#0E0E0E"/>
<path d="M44.2799 23.3823L37.5728 20.313C37.3456 20.1992 37.118 20.3697 37.118 20.5973V23.3256H16.8821V20.5973C16.8821 20.3701 16.6549 20.1992 16.4274 20.313L9.72018 23.3823C9.60638 23.439 9.54968 23.5527 9.54968 23.6665V32.8749C9.54968 33.1021 9.77688 33.273 10.0045 33.1592L16.7116 30.0899C16.8254 30.0332 16.8821 29.9194 16.8821 29.8056V26.1677H37.1748V29.8056C37.1748 29.9194 37.2315 30.0328 37.3453 30.0899L44.0525 33.1592C44.2797 33.273 44.5073 33.1025 44.5073 32.8749V23.7237C44.5073 23.5532 44.3935 23.4394 44.2797 23.3823L44.2799 23.3823Z" fill="#0E0E0E"/>
<line x1="21.9637" y1="1.21651" x2="31.9746" y2="11.2274" stroke="#0E0E0E" stroke-width="3.12443"/>
<line y1="-1.56221" x2="14.1576" y2="-1.56221" transform="matrix(-0.707107 0.707107 0.707107 0.707107 33.1154 2.32117)" stroke="#0E0E0E" stroke-width="3.12443"/>
</svg>
