<svg width="32" height="26" viewBox="0 0 32 26" fill="none" xmlns="http://www.w3.org/2000/svg">
<path d="M31.9378 0.559172C31.8222 0.230892 31.6844 0.138972 31.4711 0.0601846C31.0043 -0.114898 30.2131 0.147726 30.2131 0.147726C30.2131 0.147726 2.17012 10.0749 0.56995 11.1736C0.223246 11.4099 0.107678 11.5456 0.0543386 11.7076C-0.221247 12.4911 0.641069 12.8368 0.641069 12.8368L7.86851 15.1567C7.86851 15.1567 8.13965 15.1961 8.233 15.1348C9.87762 14.1106 24.777 4.8487 25.6349 4.53793C25.7727 4.49853 25.8705 4.5423 25.8438 4.63422C25.5015 5.82478 12.5624 17.1483 12.5624 17.1483C12.5624 17.1483 12.5135 17.2095 12.4823 17.2796L12.4646 17.2708L11.7889 24.331C11.7889 24.331 11.5045 26.4933 13.7047 24.331C15.256 22.8034 16.7539 21.5297 17.5051 20.9082C19.9898 22.5977 22.6657 24.4667 23.8169 25.4428C24.3947 25.933 24.8837 26.0118 25.2793 25.9987C26.3727 25.9593 26.6794 24.7731 26.6794 24.7731C26.6794 24.7731 31.7911 4.52042 31.96 1.80664C31.9778 1.53963 32 1.37331 32 1.18947C32 0.935599 31.9778 0.68173 31.9378 0.559172Z" fill="white"/>
</svg>
