<svg width="32" height="26" viewBox="0 0 32 26" fill="none" xmlns="http://www.w3.org/2000/svg">
<path d="M0.0145723 23.0561C2.91439 24.9215 6.36794 26 10.0692 26C22.2514 26 29.1293 15.7108 28.7213 6.47085C30.0036 5.55269 31.1111 4.38677 32 3.07511C30.8197 3.59978 29.5519 3.94956 28.2259 4.10988C29.5811 3.29373 30.6157 2.01121 31.1111 0.480944C29.8434 1.23879 28.4444 1.77803 26.9435 2.06951C25.7486 0.787004 24.0437 0 22.1494 0C17.9089 0 14.8051 3.94956 15.7523 8.05942C10.3024 7.78252 5.46448 5.17378 2.22951 1.19508C0.510018 4.13902 1.34062 8.00112 4.25501 9.95404C3.17669 9.92489 2.17122 9.61884 1.28233 9.1379C1.20947 12.1839 3.39527 15.0258 6.54281 15.6525C5.62477 15.9002 4.60474 15.9585 3.5847 15.7691C4.4153 18.3778 6.84881 20.2724 9.71949 20.3307C6.96539 22.4877 3.4827 23.4641 0 23.0415L0.0145723 23.0561Z" fill="white"/>
</svg>
