<svg width="42" height="43" viewBox="0 0 42 43" fill="none" xmlns="http://www.w3.org/2000/svg">
<path d="M39.55 37.4122C38.4999 37.4122 37.6161 38.0683 37.2575 38.9871H29.6188V33.8071H27.869V39.862C27.869 40.3521 28.2627 40.7369 28.7439 40.7369H37.2578C37.6164 41.6644 38.5002 42.3207 39.5503 42.3207C40.9064 42.3207 42.0002 41.2182 42.0002 39.862C42.0002 38.5057 40.9064 37.4121 39.5503 37.4121L39.55 37.4122Z" fill="#0E0E0E"/>
<path d="M39.5499 18.8625C38.4999 18.8625 37.6161 19.5274 37.2575 20.4463H36.5489V22.1961H37.2575C37.6164 23.1235 38.4998 23.7799 39.5499 23.7799C40.9061 23.7799 41.9998 22.6773 41.9998 21.3211C41.9998 19.9649 40.9061 18.8623 39.5499 18.8623V18.8625Z" fill="#0E0E0E"/>
<path d="M29.6189 3.65499H37.2576C37.6165 4.57388 38.4999 5.22996 39.55 5.22996C40.9062 5.22996 41.9999 4.13623 41.9999 2.78008C41.9999 1.42393 40.9062 0.321289 39.55 0.321289C38.5 0.321289 37.6162 0.977404 37.2576 1.90509H28.7437C28.2624 1.90509 27.8687 2.29877 27.8687 2.78V8.84374H29.6186L29.6189 3.65499Z" fill="#0E0E0E"/>
<path d="M2.45903 23.7796C3.5091 23.7796 4.39291 23.1235 4.74259 22.1958H5.46005V20.446H4.74259C4.39256 19.5271 3.50878 18.8622 2.45903 18.8622C1.10288 18.8622 0.000244141 19.9647 0.000244141 21.321C0.000244141 22.6772 1.10281 23.7798 2.45903 23.7798V23.7796Z" fill="#0E0E0E"/>
<path d="M2.45892 5.23001C3.50898 5.23001 4.3928 4.57389 4.74248 3.65503H12.3898V8.84355H14.1396L14.1399 2.78012C14.1399 2.29886 13.7462 1.90521 13.265 1.90521H4.74247C4.39274 0.977807 3.50897 0.321411 2.45891 0.321411C1.10276 0.321411 0.00012207 1.42397 0.00012207 2.7802C0.00012207 4.13643 1.10268 5.23008 2.45891 5.23008L2.45892 5.23001Z" fill="#0E0E0E"/>
<path d="M12.3902 38.9873H4.74259C4.39256 38.0684 3.50878 37.4123 2.45903 37.4123C1.10288 37.4123 0.000244141 38.5061 0.000244141 39.8622C0.000244141 41.2184 1.10281 42.321 2.45903 42.321C3.5091 42.321 4.39291 41.6649 4.74259 40.7372H13.2651C13.7464 40.7372 14.14 40.3521 14.14 39.8623V33.8074H12.3902V38.9873Z" fill="#0E0E0E"/>
<path d="M34.7985 12.3439C34.7985 11.3725 34.0111 10.5941 33.0486 10.5941L8.95996 10.5938C7.98857 10.5938 7.21014 11.3726 7.21014 12.3436V30.3074C7.21014 31.2698 7.98895 32.0572 8.95996 32.0572H33.0486C34.0111 32.0572 34.7985 31.2698 34.7985 30.3074V25.8799H28.0261C25.5148 25.8799 23.4674 23.8325 23.4674 21.3212C23.4674 18.81 25.5148 16.7626 28.0261 16.7626H34.7985V12.3439Z" fill="#0E0E0E"/>
<path d="M25.2173 21.321C25.2173 22.8698 26.4773 24.1298 28.0261 24.1298H34.7985V18.5126H28.0261C26.4773 18.5123 25.2173 19.7723 25.2173 21.321ZM29.6447 21.321C29.6447 22.0821 29.0322 22.6949 28.2797 22.6949C27.5186 22.6949 26.9058 22.0825 26.9058 21.321C26.9058 20.5685 27.5182 19.956 28.2797 19.956C29.0322 19.956 29.6447 20.5685 29.6447 21.321Z" fill="#0E0E0E"/>
</svg>
